<?xml version="1.0" encoding="iso-8859-1"?>
<!-- Generator: Adobe Illustrator 19.0.0, SVG Export Plug-In . SVG Version: 6.00 Build 0)  -->
<svg version="1.1" id="Capa_1" xmlns="http://www.w3.org/2000/svg" xmlns:xlink="http://www.w3.org/1999/xlink" x="0px" y="0px"
	 viewBox="0 0 512 512" style="enable-background:new 0 0 512 512;" xml:space="preserve">
<g transform="translate(-1)">
	<g transform="translate(2 1)">
		<path style="fill:#E3E7F2;" d="M412.917,101.4v366.933H71.584c-9.053,0.003-17.737-3.593-24.139-9.995
			c-6.402-6.402-9.997-15.085-9.995-24.139V101.4c-0.003-9.054,3.593-17.737,9.995-24.139c6.402-6.402,15.085-9.997,24.139-9.995
			h42.667c0.028-9.414,7.652-17.039,17.067-17.067h25.6V24.6c0.028-9.414,7.652-17.039,17.067-17.067h102.4
			c9.414,0.028,17.039,7.652,17.067,17.067v25.6h25.6c9.414,0.028,17.039,7.652,17.067,17.067h42.667
			c9.054-0.003,17.737,3.593,24.139,9.995C409.325,83.663,412.92,92.346,412.917,101.4z"/>
		<g>
			<path style="fill:#A4C2F7;" d="M412.917,101.4v366.933h-25.6V101.4c0.003-9.054-3.593-17.737-9.995-24.139
				c-6.402-6.402-15.085-9.997-24.139-9.995l25.6,0c9.054-0.003,17.737,3.593,24.139,9.995
				C409.325,83.663,412.92,92.346,412.917,101.4z"/>
			<path style="fill:#A4C2F7;" d="M131.317,50.2h187.733c9.426,0,17.067,7.641,17.067,17.067V101.4
				c0,9.426-7.641,17.067-17.067,17.067H131.317c-9.426,0-17.067-7.641-17.067-17.067V67.267
				C114.251,57.841,121.892,50.2,131.317,50.2z"/>
			<path style="fill:#A4C2F7;" d="M293.451,24.6v25.6H156.917V24.6c0.028-9.414,7.652-17.039,17.067-17.067h102.4
				C285.798,7.561,293.423,15.186,293.451,24.6z"/>
		</g>
		<g>
			<path style="fill:#E3E7F2;" d="M131.317,50.2h162.133c9.426,0,17.067,7.641,17.067,17.067V101.4
				c0,9.426-7.641,17.067-17.067,17.067H131.317c-9.426,0-17.067-7.641-17.067-17.067V67.267
				C114.251,57.841,121.892,50.2,131.317,50.2z"/>
			<path style="fill:#E3E7F2;" d="M267.851,24.6v25.6H156.917V24.6c0.028-9.414,7.652-17.039,17.067-17.067h76.8
				C260.198,7.561,267.823,15.186,267.851,24.6z"/>
		</g>
		<path style="fill:#A4C2F7;" d="M472.651,178.2v307.2c-0.028,9.414-7.652,17.039-17.067,17.067h-256
			c-7.482-0.008-14.087-4.885-16.299-12.032c-0.232-0.513-0.376-1.061-0.427-1.621c-0.244-1.121-0.359-2.266-0.341-3.413V178.2
			c-0.017-1.147,0.097-2.292,0.341-3.413c0.051-0.56,0.195-1.108,0.427-1.621c2.211-7.148,8.817-12.024,16.299-12.032h256
			C464.998,161.161,472.623,168.786,472.651,178.2z"/>
		
			<linearGradient id="SVGID_1_" gradientUnits="userSpaceOnUse" x1="-49.8186" y1="651.5225" x2="-48.7096" y2="650.663" gradientTransform="matrix(264.5495 0 0 -341.3333 13347.5752 222571.4844)">
			<stop  offset="0" style="stop-color:#D4E1F4"/>
			<stop  offset="0.1717" style="stop-color:#D4E1F4"/>
			<stop  offset="0.2" style="stop-color:#D4E1F4"/>
			<stop  offset="0.2001" style="stop-color:#DAE4F4"/>
			<stop  offset="0.2007" style="stop-color:#EBEBF4"/>
			<stop  offset="0.2014" style="stop-color:#F6F1F4"/>
			<stop  offset="0.2023" style="stop-color:#FDF4F4"/>
			<stop  offset="0.205" style="stop-color:#FFF5F4"/>
			<stop  offset="0.2522" style="stop-color:#FFF5F4"/>
			<stop  offset="0.26" style="stop-color:#FFF5F4"/>
			<stop  offset="0.26" style="stop-color:#D4E1F4"/>
			<stop  offset="0.3974" style="stop-color:#D4E1F4"/>
			<stop  offset="0.42" style="stop-color:#D4E1F4"/>
			<stop  offset="0.4201" style="stop-color:#DAE4F4"/>
			<stop  offset="0.4207" style="stop-color:#EBEBF4"/>
			<stop  offset="0.4214" style="stop-color:#F6F1F4"/>
			<stop  offset="0.4223" style="stop-color:#FDF4F4"/>
			<stop  offset="0.425" style="stop-color:#FFF5F4"/>
			<stop  offset="0.4894" style="stop-color:#FFF5F4"/>
			<stop  offset="0.5" style="stop-color:#FFF5F4"/>
			<stop  offset="0.5" style="stop-color:#F9F2F4"/>
			<stop  offset="0.5001" style="stop-color:#E8EBF4"/>
			<stop  offset="0.5003" style="stop-color:#DDE5F4"/>
			<stop  offset="0.5005" style="stop-color:#D6E2F4"/>
			<stop  offset="0.501" style="stop-color:#D4E1F4"/>
			<stop  offset="0.7062" style="stop-color:#D4E1F4"/>
			<stop  offset="0.74" style="stop-color:#D4E1F4"/>
			<stop  offset="0.741" style="stop-color:#FFF5F4"/>
			<stop  offset="0.8346" style="stop-color:#FFF5F4"/>
			<stop  offset="0.85" style="stop-color:#FFF5F4"/>
			<stop  offset="0.851" style="stop-color:#D4E1F4"/>
		</linearGradient>
		<path style="fill:url(#SVGID_1_);" d="M447.051,178.2v307.2c0.374,8.983-6.552,16.594-15.531,17.067H198.048
			c-7.075-0.213-13.126-5.146-14.763-12.032c-0.232-0.513-0.376-1.061-0.427-1.621c-0.244-1.121-0.359-2.266-0.341-3.413V178.2
			c-0.017-1.147,0.097-2.292,0.341-3.413c0.051-0.56,0.195-1.108,0.427-1.621c1.636-6.886,7.688-11.819,14.763-12.032H431.52
			C440.499,161.606,447.425,169.217,447.051,178.2z"/>
		<g>
			<path style="fill:#FFFFFF;" d="M63.051,101.4v332.8c-0.002,9.053,3.593,17.737,9.995,24.139
				c6.402,6.402,15.085,9.997,24.139,9.995h-25.6c-9.053,0.003-17.737-3.593-24.139-9.995c-6.402-6.402-9.997-15.085-9.995-24.139
				V101.4c-0.003-9.054,3.593-17.737,9.995-24.139c6.402-6.402,15.085-9.997,24.139-9.995l25.6,0
				c-9.054-0.003-17.737,3.593-24.139,9.995C66.644,83.663,63.048,92.346,63.051,101.4z"/>
			<path style="fill:#FFFFFF;" d="M182.517,50.2h-25.6V24.6c0.028-9.414,7.652-17.039,17.067-17.067h25.6
				c-9.414,0.028-17.039,7.652-17.067,17.067V50.2z"/>
		</g>
	</g>
	<g>
		<polygon style="fill:#FFFFFF;" points="47.984,102.4 47.984,213.333 47.984,435.2 30.917,435.2 30.917,213.333 30.917,102.4 		"/>
		<g>
			<path style="fill:#428DFF;" d="M39.451,179.2c3.45-0.014,6.556-2.096,7.879-5.282c1.323-3.187,0.606-6.856-1.82-9.31
				l-1.279-1.025c-0.476-0.324-0.993-0.583-1.538-0.771c-0.484-0.245-1.003-0.417-1.538-0.508c-0.563-0.096-1.133-0.153-1.704-0.171
				c-2.259,0.031-4.423,0.915-6.059,2.475c-2.07,1.994-2.979,4.908-2.409,7.726c0.57,2.818,2.539,5.149,5.222,6.183
				C37.231,178.954,38.334,179.187,39.451,179.2z"/>
			<path style="fill:#428DFF;" d="M457.584,153.6h-34.133v-51.2c-0.028-23.553-19.114-42.639-42.667-42.667h-35.706
				c-3.592-10.199-13.215-17.033-24.028-17.067h-17.067V25.6c-0.015-14.132-11.468-25.585-25.6-25.6h-102.4
				c-14.132,0.015-25.585,11.468-25.6,25.6v17.067h-17.067c-10.813,0.033-20.435,6.868-24.028,17.067H73.584
				C50.031,59.761,30.945,78.847,30.917,102.4v34.133c0,4.713,3.821,8.533,8.533,8.533s8.533-3.821,8.533-8.533V102.4
				c0.015-14.132,11.468-25.585,25.6-25.6h34.133v25.6c0.015,14.132,11.468,25.585,25.6,25.6h187.733
				c14.132-0.015,25.585-11.468,25.6-25.6V76.8h34.133c14.132,0.015,25.585,11.468,25.6,25.6v51.2h-204.8
				c-14.132,0.015-25.585,11.468-25.6,25.6v281.6h-102.4c-14.132-0.015-25.585-11.468-25.6-25.6V204.8
				c0-4.713-3.821-8.533-8.533-8.533s-8.533,3.821-8.533,8.533v230.4c0.028,23.553,19.114,42.639,42.667,42.667h102.4v8.533
				c0.015,14.132,11.468,25.585,25.6,25.6h256c14.132-0.015,25.585-11.468,25.6-25.6V179.2
				C483.169,165.068,471.716,153.615,457.584,153.6z M167.451,25.6c0.006-4.71,3.823-8.527,8.533-8.533h102.4
				c4.71,0.006,8.527,3.823,8.533,8.533v17.067H167.451V25.6z M329.584,102.4c-0.006,4.71-3.823,8.527-8.533,8.533H133.317
				c-4.71-0.006-8.527-3.823-8.533-8.533V68.267c0.006-4.71,3.823-8.527,8.533-8.533h187.733c4.71,0.006,8.527,3.823,8.533,8.533
				V102.4z M466.117,486.4c-0.006,4.71-3.823,8.527-8.533,8.533h-256c-4.71-0.006-8.527-3.823-8.533-8.533V179.2
				c0.006-4.71,3.823-8.527,8.533-8.533h256c4.71,0.006,8.527,3.823,8.533,8.533V486.4z"/>
			<path style="fill:#428DFF;" d="M406.384,256h-153.6c-4.713,0-8.533,3.821-8.533,8.533s3.821,8.533,8.533,8.533h153.6
				c4.713,0,8.533-3.82,8.533-8.533S411.097,256,406.384,256z"/>
			<path style="fill:#428DFF;" d="M406.384,298.667h-153.6c-4.713,0-8.533,3.82-8.533,8.533s3.821,8.533,8.533,8.533h153.6
				c4.713,0,8.533-3.82,8.533-8.533S411.097,298.667,406.384,298.667z"/>
			<path style="fill:#428DFF;" d="M406.384,341.333h-153.6c-4.713,0-8.533,3.821-8.533,8.533c0,4.713,3.821,8.533,8.533,8.533h153.6
				c4.713,0,8.533-3.821,8.533-8.533C414.917,345.154,411.097,341.333,406.384,341.333z"/>
			<path style="fill:#428DFF;" d="M406.384,384h-153.6c-4.713,0-8.533,3.82-8.533,8.533s3.821,8.533,8.533,8.533h153.6
				c4.713,0,8.533-3.82,8.533-8.533S411.097,384,406.384,384z"/>
		</g>
	</g>
</g>
<g>
</g>
<g>
</g>
<g>
</g>
<g>
</g>
<g>
</g>
<g>
</g>
<g>
</g>
<g>
</g>
<g>
</g>
<g>
</g>
<g>
</g>
<g>
</g>
<g>
</g>
<g>
</g>
<g>
</g>
</svg>
